<svg xmlns="http://www.w3.org/2000/svg" width="760" height="620" viewBox="0 0 760 620" role="img" aria-label="Ownership condition. A USER may view a document they own: one role-gated rule with an attribute condition. ops/s, log scale — higher is better.">
<style>
  text { font-family: -apple-system, BlinkMacSystemFont, "Segoe UI", Helvetica, Arial, sans-serif; }
  .title { font-size: 15px; font-weight: 700; fill: #1b1c1e; }
  .subtitle, .caption { font-size: 12px; fill: #67676c; }
  .caption { font-size: 11px; }
  .group { font-size: 11px; font-weight: 600; letter-spacing: 0.06em; fill: #67676c; }
  .label { font-size: 13px; font-weight: 600; fill: #1b1c1e; }
  .label.hl { font-weight: 700; }
  .sublabel { font-size: 11px; fill: #67676c; }
  .value { font-size: 12px; font-weight: 600; fill: #3c3c43; font-variant-numeric: tabular-nums; }
  .tick { font-size: 11px; fill: #67676c; font-variant-numeric: tabular-nums; }
  .grid { stroke: #e4e4e7; stroke-width: 1; }
  .axis, .ref { stroke: #c2c2c4; stroke-width: 1; }
  .ref { stroke: #67676c; }
  .bar { fill: #c6c5bf; }
  .bar.hl { fill: #b37e00; }
  @media (prefers-color-scheme: dark) {
    .title, .label { fill: #dfdfd6; }
    .subtitle, .caption, .group, .sublabel, .tick { fill: #98989f; }
    .value { fill: #c2c2c4; }
    .grid { stroke: #2e2e32; }
    .axis { stroke: #48484c; }
    .ref { stroke: #98989f; }
    .bar { fill: #55544f; }
    .bar.hl { fill: #e3a500; }
  }
</style>
<text class="title" x="20" y="35">Ownership condition</text>
<text class="subtitle" x="20" y="56">A USER may view a document they own: one role-gated rule with an attribute condition. ops/s, log scale — higher</text>
<text class="subtitle" x="20" y="73">is better.</text>
<line class="grid" x1="276" y1="88" x2="276" y2="544"/>
<text class="tick" x="276" y="560" text-anchor="middle">1,000</text>
<line class="grid" x1="356" y1="88" x2="356" y2="544"/>
<text class="tick" x="356" y="560" text-anchor="middle">10k</text>
<line class="grid" x1="436" y1="88" x2="436" y2="544"/>
<text class="tick" x="436" y="560" text-anchor="middle">100k</text>
<line class="grid" x1="516" y1="88" x2="516" y2="544"/>
<text class="tick" x="516" y="560" text-anchor="middle">1M</text>
<line class="grid" x1="596" y1="88" x2="596" y2="544"/>
<text class="tick" x="596" y="560" text-anchor="middle">10M</text>
<line class="grid" x1="676" y1="88" x2="676" y2="544"/>
<text class="tick" x="676" y="560" text-anchor="middle">100M</text>
<line class="axis" x1="276" y1="88" x2="276" y2="544"/>
<text class="group" x="20" y="106">IN-PROCESS</text>
<g><title>CASL · ability built once per user
14,872,954 ops/s
67.2 ns per decision
samples 14.8M – 14.9M
@casl/ability@7.0.1</title>
<text class="label" x="20" y="133">CASL</text>
<text class="sublabel" x="20" y="148">ability built once per user</text>
<path class="bar" d="M276,129H605.7917796453928A4,4 0 0 1 609.7917796453928,133V139A4,4 0 0 1 605.7917796453928,143H276Z"/>
<text class="value" x="615.7917796453928" y="141">14.9M</text>
</g>
<g><title>@rbac/rbac · can(role, operation, params)
3,761,761 ops/s
266 ns per decision
samples 3.66M – 3.77M
@rbac/rbac@2.2.2</title>
<text class="label" x="20" y="173">@rbac/rbac</text>
<text class="sublabel" x="20" y="188">can(role, operation, params)</text>
<path class="bar" d="M276,169H558.0313001874424A4,4 0 0 1 562.0313001874424,173V179A4,4 0 0 1 558.0313001874424,183H276Z"/>
<text class="value" x="568.0313001874424" y="181">3.76M</text>
</g>
<g><title>CASL · ability built per request
1,867,907 ops/s
535 ns per decision
samples 1.86M – 1.87M
@casl/ability@7.0.1</title>
<text class="label" x="20" y="213">CASL</text>
<text class="sublabel" x="20" y="228">ability built per request</text>
<path class="bar" d="M276,209H533.7084109586265A4,4 0 0 1 537.7084109586265,213V219A4,4 0 0 1 533.7084109586265,223H276Z"/>
<text class="value" x="543.7084109586265" y="221">1.87M</text>
</g>
<g><title>AccessControl · tryCan(…).do(…)
955,368 ops/s
1.05 µs per decision
samples 940k – 960k
accesscontrol@3.1.1</title>
<text class="label" x="20" y="253">AccessControl</text>
<text class="sublabel" x="20" y="268">tryCan(…).do(…)</text>
<path class="bar" d="M276,249H510.41365945279836A4,4 0 0 1 514.4136594527984,253V259A4,4 0 0 1 510.41365945279836,263H276Z"/>
<text class="value" x="520.4136594527984" y="261">955k</text>
</g>
<g><title>Kerberos.js · isAllowed · checkResources
809,788 ops/s
1.23 µs per decision
samples 795k – 820k
@alexify/kerberos@4.3.0</title>
<text class="label hl" x="20" y="293">Kerberos.js</text>
<text class="sublabel" x="20" y="308">isAllowed · checkResources</text>
<path class="bar hl" d="M276,289H504.66969380247053A4,4 0 0 1 508.66969380247053,293V299A4,4 0 0 1 504.66969380247053,303H276Z"/>
<text class="value" x="514.6696938024705" y="301">810k</text>
</g>
<g><title>easy-rbac · can(roles, operation, params)
692,935 ops/s
1.44 µs per decision
samples 686k – 700k
easy-rbac@4.0.0</title>
<text class="label" x="20" y="333">easy-rbac</text>
<text class="sublabel" x="20" y="348">can(roles, operation, params)</text>
<path class="bar" d="M276,329H499.2554242134647A4,4 0 0 1 503.2554242134647,333V339A4,4 0 0 1 499.2554242134647,343H276Z"/>
<text class="value" x="509.2554242134647" y="341">693k</text>
</g>
<g><title>OPA · Rego compiled to WebAssembly, in-process
428,319 ops/s
2.33 µs per decision
samples 428k – 430k
@open-policy-agent/opa-wasm@1.10.0 · compiled with openpolicyagent/opa:1.21.1</title>
<text class="label" x="20" y="373">OPA</text>
<text class="sublabel" x="20" y="388">Rego compiled to WebAssembly, in-process</text>
<path class="bar" d="M276,369H482.54140081791115A4,4 0 0 1 486.54140081791115,373V379A4,4 0 0 1 482.54140081791115,383H276Z"/>
<text class="value" x="492.54140081791115" y="381">428k</text>
</g>
<g><title>casbin · enforce · batchEnforce
296,993 ops/s
3.37 µs per decision
samples 291k – 300k
casbin@5.51.1</title>
<text class="label" x="20" y="413">casbin</text>
<text class="sublabel" x="20" y="428">enforce · batchEnforce</text>
<path class="bar" d="M276,409H469.8197187307574A4,4 0 0 1 473.8197187307574,413V419A4,4 0 0 1 469.8197187307574,423H276Z"/>
<text class="value" x="479.8197187307574" y="421">297k</text>
</g>
<text class="group" x="20" y="454">SIDECAR — A NETWORK ROUND-TRIP PER CALL</text>
<g><title>OPA server · REST Data API, sidecar on localhost
2,159 ops/s
463 µs per decision
samples 2,113 – 2,195
openpolicyagent/opa:1.21.1</title>
<text class="label" x="20" y="481">OPA server</text>
<text class="sublabel" x="20" y="496">REST Data API, sidecar on localhost</text>
<path class="bar" d="M276,477H298.7476847578108A4,4 0 0 1 302.7476847578108,481V487A4,4 0 0 1 298.7476847578108,491H276Z"/>
<text class="value" x="308.7476847578108" y="489">2,159</text>
</g>
<g><title>Cerbos PDP · gRPC SDK, sidecar on localhost
1,399 ops/s
715 µs per decision
samples 1,259 – 1,444
@cerbos/grpc@0.29.1 · ghcr.io/cerbos/cerbos:0.55.0</title>
<text class="label" x="20" y="521">Cerbos PDP</text>
<text class="sublabel" x="20" y="536">gRPC SDK, sidecar on localhost</text>
<path class="bar" d="M276,517H283.65398661938247A4,4 0 0 1 287.65398661938247,521V527A4,4 0 0 1 283.65398661938247,531H276Z"/>
<text class="value" x="293.65398661938247" y="529">1,399</text>
</g>
<text class="caption" x="20" y="585">Apple M3 Max · 16 cores · Node v24.14.1 · Docker 27.4.0 · median of 5 × 1 s samples, each library in a fresh process ·</text>
<text class="caption" x="20" y="601">2026-10-03</text>
</svg>
